<svg width="16" height="17" viewBox="0 0 16 17" fill="none" xmlns="http://www.w3.org/2000/svg">
<g clip-path="url(#clip0_762_12910)">
<path d="M8.01421 16.4786C12.4317 16.4786 16.0128 12.8975 16.0128 8.48003C16.0128 4.06254 12.4317 0.481445 8.01421 0.481445C3.59672 0.481445 0.015625 4.06254 0.015625 8.48003C0.015625 12.8975 3.59672 16.4786 8.01421 16.4786Z" fill="#099149"/>
<path d="M5.96973 12.0886L10.0827 16.2015C13.4888 15.2933 16.0121 12.1898 16.0121 8.48058V8.25329L12.7824 5.27588L5.96973 12.0886Z" fill="#076132"/>
<path d="M8.21609 10.2701C8.38586 10.4463 8.48072 10.6814 8.48072 10.9261C8.48072 11.1708 8.38586 11.4059 8.21609 11.5821L7.48292 12.3139C7.30684 12.4839 7.07166 12.5789 6.82692 12.5789C6.58217 12.5789 6.34699 12.4839 6.17092 12.3139L2.96621 9.08424C2.79619 8.90808 2.70117 8.67282 2.70117 8.428C2.70117 8.18318 2.79619 7.94792 2.96621 7.77176L3.69939 7.03953C3.87557 6.86976 4.11071 6.7749 4.35539 6.7749C4.60006 6.7749 4.8352 6.86976 5.01139 7.03953L8.21609 10.2701Z" fill="white"/>
<path d="M11.0164 4.69615C11.1925 4.52616 11.4277 4.43115 11.6724 4.43115C11.9171 4.43115 12.1523 4.52616 12.3284 4.69615L13.0602 5.42791C13.2299 5.6041 13.3248 5.83924 13.3248 6.08391C13.3248 6.32858 13.2299 6.56372 13.0602 6.73991L7.50863 12.2656C7.33244 12.4353 7.0973 12.5302 6.85263 12.5302C6.60796 12.5302 6.37282 12.4353 6.19663 12.2656L5.46487 11.5338C5.29506 11.3575 5.2002 11.1223 5.2002 10.8776C5.2002 10.6328 5.29506 10.3976 5.46487 10.2213L11.0164 4.69615Z" fill="white"/>
</g>
<defs>
<clipPath id="clip0_762_12910">
<rect width="16" height="16" fill="white" transform="translate(0 0.5)"/>
</clipPath>
</defs>
</svg>
